<svg xmlns="http://www.w3.org/2000/svg" xmlns:xlink="http://www.w3.org/1999/xlink" width="500" zoomAndPan="magnify" viewBox="0 0 375 149.999998" height="200" preserveAspectRatio="xMidYMid meet" version="1.0"><defs><g/></defs><g fill="#000000" fill-opacity="1"><g transform="translate(50.718604, 98.249996)"><g><path d="M 47.75 -47.953125 C 48.457031 -49.523438 48.957031 -50.3125 49.25 -50.3125 L 49.421875 -50.3125 C 49.765625 -50.3125 50.457031 -49.945312 51.5 -49.21875 C 52.550781 -48.488281 53.078125 -47.804688 53.078125 -47.171875 C 53.078125 -46.273438 50.160156 -39.390625 44.328125 -26.515625 C 38.492188 -13.648438 35.148438 -6.4375 34.296875 -4.875 C 33.441406 -3.3125 32.851562 -2.265625 32.53125 -1.734375 C 32.21875 -1.210938 31.785156 -0.632812 31.234375 0 C 30.253906 1.207031 29.035156 1.8125 27.578125 1.8125 C 26.984375 1.8125 26.457031 1.882812 26 2.03125 C 25.550781 2.175781 25.28125 2.25 25.1875 2.25 C 24.457031 2.25 24.09375 2.082031 24.09375 1.75 C 24.09375 1.675781 24.1875 1.394531 24.375 0.90625 C 24.570312 0.414062 27.179688 -5.113281 32.203125 -15.6875 C 26.847656 -15.894531 22.140625 -16.054688 18.078125 -16.171875 C 14.179688 -11.265625 10.648438 -6.132812 7.484375 -0.78125 C 7.097656 -0.03125 6.734375 0.492188 6.390625 0.796875 C 6.046875 1.109375 5.578125 1.265625 4.984375 1.265625 C 4.398438 1.265625 3.765625 0.960938 3.078125 0.359375 C 2.390625 -0.242188 2.046875 -0.945312 2.046875 -1.75 C 2.046875 -4.019531 4.988281 -8.894531 10.875 -16.375 C 8.113281 -16.375 6.363281 -16.304688 5.625 -16.171875 C 4.882812 -16.035156 4.410156 -15.96875 4.203125 -15.96875 C 3.585938 -15.96875 3.28125 -16.484375 3.28125 -17.515625 C 3.28125 -18.554688 3.890625 -19.46875 5.109375 -20.25 C 6.328125 -21.039062 7.960938 -21.4375 10.015625 -21.4375 C 10.171875 -21.4375 10.457031 -21.445312 10.875 -21.46875 C 12.28125 -21.53125 13.722656 -21.585938 15.203125 -21.640625 C 20.171875 -27.472656 25.367188 -32.882812 30.796875 -37.875 C 36.222656 -42.863281 40.914062 -46.359375 44.875 -48.359375 C 45.507812 -48.679688 46.015625 -48.835938 46.390625 -48.828125 C 46.773438 -48.816406 47.226562 -48.523438 47.75 -47.953125 Z M 45.359375 -43.140625 C 37.035156 -36.828125 29.4375 -29.660156 22.5625 -21.640625 C 26.59375 -21.546875 30.671875 -21.375 34.796875 -21.125 C 38.941406 -29.851562 42.460938 -37.191406 45.359375 -43.140625 Z M 45.359375 -43.140625 "/></g></g></g><g fill="#000000" fill-opacity="1"><g transform="translate(91.834477, 98.249996)"><g><path d="M 19.96875 -5.265625 C 19.96875 -4.265625 20.648438 -3.765625 22.015625 -3.765625 C 22.742188 -3.765625 23.660156 -4.128906 24.765625 -4.859375 C 25.867188 -5.585938 26.863281 -6.382812 27.75 -7.25 C 30.125 -9.59375 31.46875 -10.765625 31.78125 -10.765625 C 32.375 -10.765625 32.671875 -9.910156 32.671875 -8.203125 C 32.671875 -6.492188 32.132812 -5.320312 31.0625 -4.6875 C 27.8125 -1.75 25.296875 0.0390625 23.515625 0.6875 C 22.515625 1.03125 21.410156 1.1875 20.203125 1.15625 C 18.992188 1.132812 17.796875 0.613281 16.609375 -0.40625 C 15.421875 -1.4375 14.828125 -2.6875 14.828125 -4.15625 C 14.828125 -5.625 15.210938 -7.289062 15.984375 -9.15625 C 16.765625 -11.03125 17.554688 -12.632812 18.359375 -13.96875 C 19.171875 -15.300781 20.171875 -16.847656 21.359375 -18.609375 C 22.546875 -20.378906 23.175781 -21.476562 23.25 -21.90625 L 23.171875 -21.984375 C 22.421875 -21.910156 20.554688 -20.425781 17.578125 -17.53125 C 14.609375 -14.632812 12.15625 -12.113281 10.21875 -9.96875 C 8.28125 -7.832031 5.96875 -4.976562 3.28125 -1.40625 C 2.53125 -0.425781 1.914062 0.0625 1.4375 0.0625 C 0.957031 0.0625 0.316406 -0.0859375 -0.484375 -0.390625 C -1.296875 -0.703125 -1.789062 -0.925781 -1.96875 -1.0625 C -2.15625 -1.195312 -2.25 -1.398438 -2.25 -1.671875 C -2.25 -1.941406 -2.171875 -2.273438 -2.015625 -2.671875 C -1.859375 -3.078125 -1.703125 -3.410156 -1.546875 -3.671875 C -1.398438 -3.929688 -1.15625 -4.332031 -0.8125 -4.875 C -0.476562 -5.425781 0.191406 -6.582031 1.203125 -8.34375 C 2.222656 -10.113281 3.78125 -12.753906 5.875 -16.265625 C 7.976562 -19.773438 9.234375 -21.894531 9.640625 -22.625 C 10.503906 -24.132812 11.210938 -25.226562 11.765625 -25.90625 C 12.785156 -27.207031 14.515625 -27.859375 16.953125 -27.859375 C 17.503906 -27.859375 17.78125 -27.515625 17.78125 -26.828125 C 17.78125 -25.753906 16.785156 -23.738281 14.796875 -20.78125 L 13.359375 -18.625 C 17.304688 -23 20.632812 -25.769531 23.34375 -26.9375 C 24.664062 -27.5 25.851562 -27.78125 26.90625 -27.78125 C 27.96875 -27.78125 28.8125 -27.492188 29.4375 -26.921875 C 30.070312 -26.359375 30.390625 -25.726562 30.390625 -25.03125 C 30.390625 -24.34375 30.148438 -23.515625 29.671875 -22.546875 C 29.191406 -21.578125 28.707031 -20.707031 28.21875 -19.9375 C 27.726562 -19.175781 27.082031 -18.210938 26.28125 -17.046875 C 25.488281 -15.890625 25.054688 -15.257812 24.984375 -15.15625 C 24.921875 -15.050781 24.742188 -14.773438 24.453125 -14.328125 C 24.171875 -13.890625 23.960938 -13.566406 23.828125 -13.359375 C 23.691406 -13.160156 23.460938 -12.800781 23.140625 -12.28125 C 22.816406 -11.769531 22.554688 -11.34375 22.359375 -11 C 22.171875 -10.664062 21.929688 -10.242188 21.640625 -9.734375 C 21.359375 -9.234375 21.132812 -8.800781 20.96875 -8.4375 C 20.800781 -8.070312 20.625 -7.675781 20.4375 -7.25 C 20.125 -6.445312 19.96875 -5.785156 19.96875 -5.265625 Z M 19.96875 -5.265625 "/></g></g></g><g fill="#000000" fill-opacity="1"><g transform="translate(119.176699, 98.249996)"><g><path d="M 25.328125 -26.046875 C 26.015625 -26.046875 26.710938 -25.738281 27.421875 -25.125 C 28.140625 -24.507812 28.5 -23.566406 28.5 -22.296875 C 28.5 -21.035156 28.054688 -19.394531 27.171875 -17.375 C 26.285156 -15.363281 25.066406 -13.3125 23.515625 -11.21875 C 21.960938 -9.132812 20.257812 -7.175781 18.40625 -5.34375 C 16.550781 -3.507812 14.546875 -2.003906 12.390625 -0.828125 C 10.234375 0.335938 8.273438 0.921875 6.515625 0.921875 C 4.765625 0.921875 3.359375 0.367188 2.296875 -0.734375 C 1.242188 -1.835938 0.71875 -3.375 0.71875 -5.34375 C 0.71875 -7.320312 1.203125 -9.503906 2.171875 -11.890625 C 3.140625 -14.285156 4.382812 -16.398438 5.90625 -18.234375 C 7.4375 -20.066406 9.09375 -21.710938 10.875 -23.171875 C 14.582031 -26.160156 17.835938 -27.65625 20.640625 -27.65625 C 21.898438 -27.65625 22.847656 -27.347656 23.484375 -26.734375 C 23.710938 -26.523438 23.828125 -26.34375 23.828125 -26.1875 L 23.828125 -25.984375 C 24.140625 -26.023438 24.640625 -26.046875 25.328125 -26.046875 Z M 21.875 -21.5 L 21.640625 -21.5 C 20.835938 -21.5 20.4375 -22.082031 20.4375 -23.25 C 18.769531 -22.695312 17.023438 -21.738281 15.203125 -20.375 C 13.378906 -19.007812 11.753906 -17.390625 10.328125 -15.515625 C 7.410156 -11.773438 5.925781 -8.617188 5.875 -6.046875 C 5.875 -4.773438 6.34375 -4.140625 7.28125 -4.140625 C 8.21875 -4.140625 9.609375 -4.753906 11.453125 -5.984375 C 13.296875 -7.210938 15.125 -8.960938 16.9375 -11.234375 C 18.75 -13.515625 20.101562 -15.492188 21 -17.171875 C 21.90625 -18.847656 22.359375 -19.988281 22.359375 -20.59375 C 22.359375 -21.195312 22.195312 -21.5 21.875 -21.5 Z M 21.875 -21.5 "/></g></g></g><g fill="#000000" fill-opacity="1"><g transform="translate(144.810033, 98.249996)"><g><path d="M 19.96875 -5.265625 C 19.96875 -4.265625 20.648438 -3.765625 22.015625 -3.765625 C 22.742188 -3.765625 23.660156 -4.128906 24.765625 -4.859375 C 25.867188 -5.585938 26.863281 -6.382812 27.75 -7.25 C 30.125 -9.59375 31.46875 -10.765625 31.78125 -10.765625 C 32.375 -10.765625 32.671875 -9.910156 32.671875 -8.203125 C 32.671875 -6.492188 32.132812 -5.320312 31.0625 -4.6875 C 27.8125 -1.75 25.296875 0.0390625 23.515625 0.6875 C 22.515625 1.03125 21.410156 1.1875 20.203125 1.15625 C 18.992188 1.132812 17.796875 0.613281 16.609375 -0.40625 C 15.421875 -1.4375 14.828125 -2.6875 14.828125 -4.15625 C 14.828125 -5.625 15.210938 -7.289062 15.984375 -9.15625 C 16.765625 -11.03125 17.554688 -12.632812 18.359375 -13.96875 C 19.171875 -15.300781 20.171875 -16.847656 21.359375 -18.609375 C 22.546875 -20.378906 23.175781 -21.476562 23.25 -21.90625 L 23.171875 -21.984375 C 22.421875 -21.910156 20.554688 -20.425781 17.578125 -17.53125 C 14.609375 -14.632812 12.15625 -12.113281 10.21875 -9.96875 C 8.28125 -7.832031 5.96875 -4.976562 3.28125 -1.40625 C 2.53125 -0.425781 1.914062 0.0625 1.4375 0.0625 C 0.957031 0.0625 0.316406 -0.0859375 -0.484375 -0.390625 C -1.296875 -0.703125 -1.789062 -0.925781 -1.96875 -1.0625 C -2.15625 -1.195312 -2.25 -1.398438 -2.25 -1.671875 C -2.25 -1.941406 -2.171875 -2.273438 -2.015625 -2.671875 C -1.859375 -3.078125 -1.703125 -3.410156 -1.546875 -3.671875 C -1.398438 -3.929688 -1.15625 -4.332031 -0.8125 -4.875 C -0.476562 -5.425781 0.191406 -6.582031 1.203125 -8.34375 C 2.222656 -10.113281 3.78125 -12.753906 5.875 -16.265625 C 7.976562 -19.773438 9.234375 -21.894531 9.640625 -22.625 C 10.503906 -24.132812 11.210938 -25.226562 11.765625 -25.90625 C 12.785156 -27.207031 14.515625 -27.859375 16.953125 -27.859375 C 17.503906 -27.859375 17.78125 -27.515625 17.78125 -26.828125 C 17.78125 -25.753906 16.785156 -23.738281 14.796875 -20.78125 L 13.359375 -18.625 C 17.304688 -23 20.632812 -25.769531 23.34375 -26.9375 C 24.664062 -27.5 25.851562 -27.78125 26.90625 -27.78125 C 27.96875 -27.78125 28.8125 -27.492188 29.4375 -26.921875 C 30.070312 -26.359375 30.390625 -25.726562 30.390625 -25.03125 C 30.390625 -24.34375 30.148438 -23.515625 29.671875 -22.546875 C 29.191406 -21.578125 28.707031 -20.707031 28.21875 -19.9375 C 27.726562 -19.175781 27.082031 -18.210938 26.28125 -17.046875 C 25.488281 -15.890625 25.054688 -15.257812 24.984375 -15.15625 C 24.921875 -15.050781 24.742188 -14.773438 24.453125 -14.328125 C 24.171875 -13.890625 23.960938 -13.566406 23.828125 -13.359375 C 23.691406 -13.160156 23.460938 -12.800781 23.140625 -12.28125 C 22.816406 -11.769531 22.554688 -11.34375 22.359375 -11 C 22.171875 -10.664062 21.929688 -10.242188 21.640625 -9.734375 C 21.359375 -9.234375 21.132812 -8.800781 20.96875 -8.4375 C 20.800781 -8.070312 20.625 -7.675781 20.4375 -7.25 C 20.125 -6.445312 19.96875 -5.785156 19.96875 -5.265625 Z M 19.96875 -5.265625 "/></g></g></g><g fill="#000000" fill-opacity="1"><g transform="translate(172.152255, 98.249996)"><g><path d="M 12.46875 11.34375 C 12.363281 11.457031 12.019531 12.03125 11.4375 13.0625 C 10.851562 14.101562 10.226562 15.15625 9.5625 16.21875 C 8.90625 17.28125 8.09375 18.285156 7.125 19.234375 C 6.15625 20.191406 5.34375 20.710938 4.6875 20.796875 C 4.039062 20.878906 3.628906 20.921875 3.453125 20.921875 C 1.359375 20.921875 0.3125 19.859375 0.3125 17.734375 C 0.3125 15.253906 1.597656 12.351562 4.171875 9.03125 C 5.148438 7.769531 6.378906 6.414062 7.859375 4.96875 C 9.335938 3.519531 10.144531 2.695312 10.28125 2.5 C 10.425781 2.3125 12.140625 -0.878906 15.421875 -7.078125 C 13.234375 -4.679688 11.203125 -2.738281 9.328125 -1.25 C 7.460938 0.238281 5.664062 1.078125 3.9375 1.265625 L 3.6875 1.265625 C 2.800781 1.265625 1.925781 0.972656 1.0625 0.390625 C 0.195312 -0.191406 -0.234375 -1.210938 -0.234375 -2.671875 C -0.234375 -4.828125 0.34375 -6.921875 1.5 -8.953125 C 1.914062 -9.660156 2.628906 -10.859375 3.640625 -12.546875 C 4.648438 -14.234375 5.585938 -15.863281 6.453125 -17.4375 C 7.273438 -18.6875 8.117188 -20.140625 8.984375 -21.796875 C 9.847656 -23.460938 10.507812 -24.65625 10.96875 -25.375 C 11.425781 -26.09375 11.859375 -26.453125 12.265625 -26.453125 C 12.679688 -26.453125 13.210938 -26.195312 13.859375 -25.6875 C 14.503906 -25.175781 14.828125 -24.566406 14.828125 -23.859375 C 14.828125 -23.148438 13.332031 -20.082031 10.34375 -14.65625 C 7.363281 -9.238281 5.875 -6.15625 5.875 -5.40625 C 5.875 -5.21875 5.96875 -5.125 6.15625 -5.125 C 6.769531 -5.125 8.128906 -5.992188 10.234375 -7.734375 C 12.347656 -9.484375 14.679688 -11.722656 17.234375 -14.453125 C 20.078125 -17.484375 22.304688 -20.253906 23.921875 -22.765625 C 24.128906 -23.085938 24.296875 -23.332031 24.421875 -23.5 C 24.546875 -23.664062 24.703125 -23.890625 24.890625 -24.171875 C 25.085938 -24.460938 25.25 -24.6875 25.375 -24.84375 C 25.5 -25.007812 25.644531 -25.195312 25.8125 -25.40625 C 25.988281 -25.625 26.144531 -25.789062 26.28125 -25.90625 C 26.414062 -26.019531 26.566406 -26.132812 26.734375 -26.25 C 26.984375 -26.476562 27.257812 -26.59375 27.5625 -26.59375 C 27.875 -26.59375 28.34375 -26.523438 28.96875 -26.390625 C 29.59375 -26.253906 29.96875 -26.101562 30.09375 -25.9375 C 30.21875 -25.78125 30.347656 -25.632812 30.484375 -25.5 C 30.710938 -25.25 30.828125 -25.015625 30.828125 -24.796875 C 30.828125 -24.578125 30.734375 -24.289062 30.546875 -23.9375 C 30.367188 -23.582031 29.3125 -21.78125 27.375 -18.53125 C 21.675781 -8.914062 17.757812 -1.894531 15.625 2.53125 C 19.082031 -0.382812 23.957031 -4.703125 30.25 -10.421875 C 30.5 -10.628906 30.75 -10.734375 31 -10.734375 C 31.707031 -10.734375 32.0625 -9.648438 32.0625 -7.484375 C 32.0625 -6.847656 31.945312 -6.425781 31.71875 -6.21875 C 24.90625 -0.976562 18.488281 4.875 12.46875 11.34375 Z M 12.46875 11.34375 "/></g></g></g><g fill="#000000" fill-opacity="1"><g transform="translate(199.460306, 98.249996)"><g><path d="M 12.765625 -22.703125 C 14.960938 -24.222656 17.117188 -25.394531 19.234375 -26.21875 C 21.359375 -27.039062 23.195312 -27.453125 24.75 -27.453125 C 26.300781 -27.453125 27.289062 -27.003906 27.71875 -26.109375 C 28.601562 -27.140625 29.707031 -27.6875 31.03125 -27.75 C 31.414062 -27.769531 31.894531 -27.78125 32.46875 -27.78125 C 33.039062 -27.78125 33.394531 -27.707031 33.53125 -27.5625 C 33.664062 -27.414062 33.789062 -27.132812 33.90625 -26.71875 C 34.019531 -26.3125 34.085938 -26.085938 34.109375 -26.046875 C 34.128906 -26.003906 34.140625 -25.929688 34.140625 -25.828125 C 34.140625 -25.722656 34.082031 -25.59375 33.96875 -25.4375 C 33.851562 -25.289062 33.722656 -25.148438 33.578125 -25.015625 C 33.429688 -24.878906 33.347656 -24.800781 33.328125 -24.78125 C 28.285156 -17.5625 23.132812 -9.320312 17.875 -0.0625 C 23.300781 -4.875 28.15625 -8.328125 32.4375 -10.421875 C 32.707031 -10.554688 32.96875 -10.625 33.21875 -10.625 C 33.582031 -10.625 33.820312 -10.390625 33.9375 -9.921875 C 34.050781 -9.460938 34.109375 -8.796875 34.109375 -7.921875 C 34.109375 -7.054688 34.054688 -6.519531 33.953125 -6.3125 C 33.847656 -6.113281 33.316406 -5.707031 32.359375 -5.09375 C 31.410156 -4.476562 30.171875 -3.679688 28.640625 -2.703125 C 27.117188 -1.722656 25.503906 -0.640625 23.796875 0.546875 C 19.691406 3.390625 16.316406 6.382812 13.671875 9.53125 C 10.253906 13.65625 7.804688 16.984375 6.328125 19.515625 C 5.773438 20.492188 4.851562 20.984375 3.5625 20.984375 C 0.976562 20.984375 -0.3125 19.765625 -0.3125 17.328125 C -0.3125 14.847656 0.90625 12.304688 3.34375 9.703125 C 5.164062 7.765625 6.84375 6.179688 8.375 4.953125 C 9.90625 3.722656 10.738281 3.03125 10.875 2.875 C 12.5625 0.34375 14.847656 -3.242188 17.734375 -7.890625 C 15.273438 -5.316406 12.890625 -3.265625 10.578125 -1.734375 C 8.265625 -0.210938 6.539062 0.546875 5.40625 0.546875 C 1.914062 0.546875 0.171875 -0.945312 0.171875 -3.9375 C 0.171875 -6.300781 0.773438 -8.691406 1.984375 -11.109375 C 3.191406 -13.523438 4.738281 -15.679688 6.625 -17.578125 C 8.519531 -19.484375 10.566406 -21.191406 12.765625 -22.703125 Z M 25.765625 -23.578125 C 23.128906 -23.015625 20.644531 -22.078125 18.3125 -20.765625 C 15.988281 -19.453125 14.078125 -18.050781 12.578125 -16.5625 C 11.078125 -15.070312 9.78125 -13.539062 8.6875 -11.96875 C 6.632812 -9.019531 5.609375 -6.738281 5.609375 -5.125 C 5.609375 -4.738281 5.703125 -4.546875 5.890625 -4.546875 C 6.085938 -4.546875 6.519531 -4.75 7.1875 -5.15625 C 7.863281 -5.570312 8.816406 -6.273438 10.046875 -7.265625 C 11.273438 -8.253906 12.644531 -9.429688 14.15625 -10.796875 C 17.632812 -14.015625 21.503906 -18.273438 25.765625 -23.578125 Z M 25.765625 -23.578125 "/></g></g></g><g fill="#000000" fill-opacity="1"><g transform="translate(228.750668, 98.249996)"><g><path d="M 13.296875 -18.625 C 18.671875 -24.726562 23.25 -27.78125 27.03125 -27.78125 C 27.96875 -27.78125 28.738281 -27.5 29.34375 -26.9375 C 29.945312 -26.382812 30.25 -25.664062 30.25 -24.78125 C 30.25 -23.894531 29.613281 -22.40625 28.34375 -20.3125 C 27.082031 -18.226562 25.914062 -16.472656 24.84375 -15.046875 C 24.28125 -14.316406 23.640625 -13.953125 22.921875 -13.953125 C 22.203125 -13.953125 21.640625 -14.210938 21.234375 -14.734375 C 20.835938 -15.253906 20.640625 -15.867188 20.640625 -16.578125 C 20.640625 -18.148438 21.484375 -19.925781 23.171875 -21.90625 L 23.109375 -21.984375 C 22.359375 -21.910156 20.492188 -20.425781 17.515625 -17.53125 C 14.546875 -14.632812 12.015625 -12.039062 9.921875 -9.75 C 7.835938 -7.46875 5.578125 -4.6875 3.140625 -1.40625 C 2.429688 -0.425781 1.832031 0.0625 1.34375 0.0625 C 0.851562 0.0625 0.207031 -0.0859375 -0.59375 -0.390625 C -1.40625 -0.703125 -1.894531 -0.925781 -2.0625 -1.0625 C -2.238281 -1.195312 -2.328125 -1.421875 -2.328125 -1.734375 C -2.328125 -2.054688 -2.234375 -2.425781 -2.046875 -2.84375 C -1.867188 -3.269531 -1.535156 -3.867188 -1.046875 -4.640625 C -0.554688 -5.421875 0.179688 -6.675781 1.171875 -8.40625 C 2.171875 -10.132812 3.71875 -12.753906 5.8125 -16.265625 C 7.90625 -19.773438 9.160156 -21.894531 9.578125 -22.625 C 10.441406 -24.132812 11.144531 -25.226562 11.6875 -25.90625 C 12.71875 -27.207031 14.453125 -27.859375 16.890625 -27.859375 C 17.429688 -27.859375 17.703125 -27.515625 17.703125 -26.828125 C 17.703125 -25.753906 16.710938 -23.738281 14.734375 -20.78125 Z M 13.296875 -18.625 "/></g></g></g><g fill="#000000" fill-opacity="1"><g transform="translate(253.187785, 98.249996)"><g><path d="M 28.203125 -25.984375 C 29.929688 -25.984375 30.796875 -25.390625 30.796875 -24.203125 C 30.796875 -23.566406 30.644531 -23.097656 30.34375 -22.796875 C 30.050781 -22.503906 29.421875 -21.519531 28.453125 -19.84375 C 27.484375 -18.164062 26.410156 -16.019531 25.234375 -13.40625 C 24.066406 -10.800781 23.3125 -8.578125 22.96875 -6.734375 C 22.894531 -6.503906 22.859375 -6.1875 22.859375 -5.78125 C 22.859375 -4.519531 23.203125 -3.890625 23.890625 -3.890625 C 24.578125 -3.890625 25.382812 -4.210938 26.3125 -4.859375 C 27.25 -5.515625 28.082031 -6.210938 28.8125 -6.953125 C 29.539062 -7.691406 30.253906 -8.445312 30.953125 -9.21875 C 31.648438 -10 32.066406 -10.445312 32.203125 -10.5625 C 32.335938 -10.675781 32.539062 -10.734375 32.8125 -10.734375 C 33.25 -10.734375 33.507812 -10.398438 33.59375 -9.734375 C 33.6875 -9.078125 33.734375 -8.394531 33.734375 -7.6875 C 33.734375 -6.976562 33.664062 -6.488281 33.53125 -6.21875 C 32.875 -4.914062 31.421875 -3.351562 29.171875 -1.53125 C 26.929688 0.289062 24.890625 1.203125 23.046875 1.203125 C 21.210938 1.203125 19.863281 0.644531 19 -0.46875 C 18.132812 -1.59375 17.703125 -2.832031 17.703125 -4.1875 C 17.703125 -5.539062 17.929688 -6.734375 18.390625 -7.765625 C 16.492188 -5.296875 14.320312 -3.207031 11.875 -1.5 C 9.425781 0.207031 7.425781 1.0625 5.875 1.0625 C 4.332031 1.0625 3.066406 0.59375 2.078125 -0.34375 C 0.828125 -1.5 0.203125 -3.109375 0.203125 -5.171875 C 0.203125 -7.234375 0.660156 -9.304688 1.578125 -11.390625 C 2.503906 -13.484375 3.71875 -15.390625 5.21875 -17.109375 C 6.726562 -18.828125 8.382812 -20.394531 10.1875 -21.8125 C 13.96875 -24.769531 17.453125 -26.25 20.640625 -26.25 C 21.867188 -26.25 22.867188 -26.039062 23.640625 -25.625 C 24.421875 -25.21875 24.914062 -24.707031 25.125 -24.09375 C 25.664062 -24.914062 26.125 -25.4375 26.5 -25.65625 C 26.882812 -25.875 27.453125 -25.984375 28.203125 -25.984375 Z M 23.65625 -22.1875 C 19.757812 -22.1875 15.722656 -20.019531 11.546875 -15.6875 C 10.066406 -14.132812 8.707031 -12.273438 7.46875 -10.109375 C 6.226562 -7.953125 5.609375 -6.472656 5.609375 -5.671875 C 5.609375 -4.878906 5.835938 -4.484375 6.296875 -4.484375 C 6.929688 -4.484375 8.707031 -5.738281 11.625 -8.25 C 14.539062 -10.769531 16.476562 -12.625 17.4375 -13.8125 C 18.476562 -15.132812 20.550781 -17.925781 23.65625 -22.1875 Z M 23.65625 -22.1875 "/></g></g></g><g fill="#000000" fill-opacity="1"><g transform="translate(281.69204, 98.249996)"><g><path d="M 2.125 0.203125 L 0.4375 0.140625 L -0.171875 0.140625 C -0.398438 0.0664062 -0.644531 -0.0664062 -0.90625 -0.265625 C -1.164062 -0.472656 -1.363281 -0.625 -1.5 -0.71875 C -1.632812 -0.8125 -1.703125 -0.976562 -1.703125 -1.21875 C -1.703125 -1.457031 -1.613281 -1.875 -1.4375 -2.46875 C 3.007812 -12.238281 7.304688 -20.050781 11.453125 -25.90625 C 11.910156 -26.539062 12.644531 -27.023438 13.65625 -27.359375 C 14.664062 -27.691406 15.648438 -27.859375 16.609375 -27.859375 C 17.179688 -27.859375 17.46875 -27.414062 17.46875 -26.53125 C 17.46875 -26.269531 17.375 -25.929688 17.1875 -25.515625 C 17.007812 -25.097656 16.554688 -24.410156 15.828125 -23.453125 C 15.097656 -22.492188 14.226562 -21.398438 13.21875 -20.171875 C 12.21875 -18.941406 11.648438 -18.234375 11.515625 -18.046875 C 14.640625 -21.285156 17.457031 -23.695312 19.96875 -25.28125 C 22.488281 -26.863281 24.3125 -27.65625 25.4375 -27.65625 C 26.570312 -27.65625 27.441406 -27.328125 28.046875 -26.671875 C 28.648438 -26.023438 28.953125 -25.332031 28.953125 -24.59375 C 28.953125 -23.851562 28.898438 -23.238281 28.796875 -22.75 C 28.691406 -22.257812 28.503906 -21.742188 28.234375 -21.203125 C 27.960938 -20.671875 27.726562 -20.21875 27.53125 -19.84375 C 27.332031 -19.46875 27.003906 -18.976562 26.546875 -18.375 C 26.097656 -17.769531 25.785156 -17.351562 25.609375 -17.125 C 25.441406 -16.894531 25.085938 -16.460938 24.546875 -15.828125 C 24.015625 -15.191406 23.726562 -14.835938 23.6875 -14.765625 C 24.320312 -15.398438 25.207031 -16.34375 26.34375 -17.59375 C 27.488281 -18.851562 28.453125 -19.90625 29.234375 -20.75 C 30.023438 -21.59375 31.007812 -22.539062 32.1875 -23.59375 C 33.375 -24.65625 34.484375 -25.519531 35.515625 -26.1875 C 37.972656 -27.726562 40.46875 -28.5 43 -28.5 C 43.863281 -28.5 44.59375 -28.222656 45.1875 -27.671875 C 45.78125 -27.128906 46.078125 -26.476562 46.078125 -25.71875 C 46.078125 -24.957031 45.148438 -23.132812 43.296875 -20.25 C 41.453125 -17.363281 39.613281 -14.46875 37.78125 -11.5625 C 35.945312 -8.664062 35.03125 -6.835938 35.03125 -6.078125 C 35.03125 -5.035156 35.222656 -4.414062 35.609375 -4.21875 C 36.003906 -4.03125 36.472656 -3.957031 37.015625 -4 C 37.566406 -4.039062 38.335938 -4.390625 39.328125 -5.046875 C 40.316406 -5.710938 41.195312 -6.398438 41.96875 -7.109375 C 43.226562 -8.242188 44.390625 -9.347656 45.453125 -10.421875 C 45.679688 -10.628906 45.9375 -10.734375 46.21875 -10.734375 C 46.644531 -10.734375 46.90625 -10.398438 47 -9.734375 C 47.09375 -9.078125 47.140625 -8.394531 47.140625 -7.6875 C 47.140625 -6.976562 47.066406 -6.488281 46.921875 -6.21875 C 46.265625 -4.945312 44.804688 -3.382812 42.546875 -1.53125 C 40.296875 0.3125 38.132812 1.234375 36.0625 1.234375 C 35.8125 1.234375 35.628906 1.222656 35.515625 1.203125 C 33.171875 0.972656 31.546875 0.328125 30.640625 -0.734375 C 29.742188 -1.796875 29.296875 -3.054688 29.296875 -4.515625 C 29.296875 -5.972656 29.789062 -7.738281 30.78125 -9.8125 C 31.769531 -11.882812 32.859375 -13.765625 34.046875 -15.453125 C 35.234375 -17.140625 36.320312 -18.660156 37.3125 -20.015625 C 38.300781 -21.367188 38.796875 -22.101562 38.796875 -22.21875 C 38.796875 -22.332031 38.703125 -22.390625 38.515625 -22.390625 C 37.816406 -22.390625 36.242188 -21.25 33.796875 -18.96875 C 29.628906 -15.070312 26.03125 -11.3125 23 -7.6875 C 22.207031 -6.726562 20.316406 -4.300781 17.328125 -0.40625 C 16.984375 0.0507812 16.441406 0.28125 15.703125 0.28125 C 14.960938 0.28125 14.191406 0.140625 13.390625 -0.140625 C 12.597656 -0.429688 12.203125 -0.804688 12.203125 -1.265625 C 12.203125 -1.492188 14.015625 -4.6875 17.640625 -10.84375 C 21.265625 -17.007812 23.078125 -20.367188 23.078125 -20.921875 C 23.078125 -21.484375 22.738281 -21.765625 22.0625 -21.765625 C 21.394531 -21.765625 20.007812 -20.765625 17.90625 -18.765625 C 12.144531 -13.253906 7.679688 -7.773438 4.515625 -2.328125 C 4.304688 -2.003906 3.90625 -1.5 3.3125 -0.8125 C 2.71875 -0.132812 2.320312 0.203125 2.125 0.203125 Z M 2.125 0.203125 "/></g></g></g></svg>